<svg width="220" height="65" fill="none" xmlns="http://www.w3.org/2000/svg"><path d="m219.857 6.8-3.284-4.469a.803.803 0 0 0-1.224-.087c-5.382 5.45-27.88 28.512-27.88 28.512 0-.039 15.582-24.267 15.582-24.267a.81.81 0 0 0-.331-1.165l-4.361-2.157a.813.813 0 0 0-1.088.408l-11.463 26.18S187.1 17.952 191.966.806a.566.566 0 0 0-.544-.728L186.604 0a.869.869 0 0 0-.865.719c-3.293 19.71-3.468 35.827.593 47.523.165.767.515 1.049 1.389 1.059l3.42.048a.69.69 0 0 0 .631-.99l-5.1-10.88 14.455 11.54a.714.714 0 0 0 1.03-.146l2.496-3.206c.263-.359.127-.864-.272-1.068l-16.533-8.724s22.168 4.877 27.851 5.916a.793.793 0 0 0 .923-.621l1.039-4.867a.8.8 0 0 0-.787-.972l-28.424-1.195 26.336-5.653a.807.807 0 0 0 .612-.991l-.486-4.76c-.126-.476-.651-.739-1.098-.535L188.353 32.33s25.597-20.168 31.319-24.413a.797.797 0 0 0 .165-1.127" fill="#FDC100"/><path d="M77.638 12.337v3.585h-4.702v5.032h4.702v21.1h5.877v-21.1h9.122v-5.032h-9.122V13.62c0-2.448.466-5.168 4.79-5.168 2.632 0 4.322.845 4.322.845v-4.75s-1.515-.894-4.371-.894c-9.91 0-10.618 5.857-10.618 8.684Zm19.37 29.717h5.829v-25.49l-5.829 4.39v21.1Zm2.963-38.159c-2.302 0-4.041 1.642-4.041 3.575 0 2.07 1.739 3.711 4.041 3.711 2.302 0 3.944-1.641 3.944-3.71 0-1.924-1.739-3.576-3.944-3.576Zm48.261 0c-2.302 0-4.041 1.642-4.041 3.575 0 2.07 1.739 3.711 4.041 3.711 2.303 0 3.944-1.641 3.944-3.71 0-1.924-1.739-3.576-3.944-3.576Zm-2.963 38.159h5.829v-25.49l-5.829 4.39v21.1Zm25.656-14.902-3.167-.612c-2.681-.612-7.237-.768-7.237-3.857 0-1.855 2.963-2.798 5.731-2.798 3.371 0 5.8.661 6.83 3.488l4.818-2.293c-2.341-4.303-5.897-5.906-11.317-5.906-5.78 0-11.541 2.263-11.541 7.946 0 5.372 5.353 6.907 8.743 7.704l3.643.748c2.448.612 6.256.719 6.295 3.526.039 2.827-4.226 3.002-6.441 3.002-3.011 0-7.577-.583-8.247-4.274l-4.828 2.38c1.525 4.565 6.887 6.644 13.124 6.644 7.052 0 12.191-2.963 12.191-8.315 0-5.741-5.644-6.674-8.597-7.383ZM56.538 15.174c-7.043 0-12.765 3.03-15.514 9.268-2.36 4.682-5.673 12.521-17.855 12.521-7.947 0-16.165-3.429-16.165-12.998 0-9.568 6.78-13.425 15.495-13.425 5.896 0 11.2 1.496 13.376 5.975l5.275-3.352c-3.594-6.411-10.85-8.52-18.564-8.52C10.53 4.643 0 11.648 0 23.674s9.569 19.167 22.916 19.167c13.348 0 18.497-8.442 18.497-8.442 2.273 5.148 7.878 8.442 15.115 8.442 9.52 0 16.165-4.624 16.165-13.814 0-9.19-6.645-13.863-16.165-13.863m.01 22.421c-6.285 0-9.948-3.837-9.948-8.578 0-4.74 3.73-8.578 9.948-8.578 6.217 0 9.947 3.838 9.947 8.578 0 4.74-3.74 8.578-9.947 8.578Zm81.776-4.488v-28.9h-5.868v13.765c-2.71-1.778-6.217-2.788-10.21-2.788-9.52 0-16.164 4.964-16.164 13.862 0 8.899 6.644 13.814 16.164 13.814 6.956 0 10.473-3.089 11.57-4.284 1.234 1.904 3.536 3.575 7.869 3.575v-5.479s-3.352.66-3.352-3.565m-16.096 4.488c-6.208 0-9.948-3.837-9.948-8.578 0-4.74 3.847-8.578 9.948-8.578 6.1 0 9.947 3.838 9.947 8.578 0 4.74-3.662 8.578-9.947 8.578Z" fill="#E40041"/><path d="M176.155 61.986c-.674 0-1.279-.148-1.813-.444a3.304 3.304 0 0 1-1.246-1.27c-.304-.551-.456-1.184-.456-1.9 0-.699.144-1.324.432-1.874.296-.56.703-.995 1.221-1.308.517-.312 1.105-.468 1.763-.468.567 0 1.098.127 1.591.382.493.247.892.641 1.196 1.184.313.534.469 1.209.469 2.023v.456h-5.18c.058.592.272 1.056.641 1.393.379.33.839.494 1.382.494.411 0 .777-.115 1.097-.346a2.14 2.14 0 0 0 .728-.925l1.381.543a3.081 3.081 0 0 1-1.221 1.492c-.567.379-1.229.568-1.985.568Zm1.652-4.366c-.049-.543-.238-.946-.567-1.209-.329-.263-.728-.394-1.196-.394-.485 0-.892.152-1.221.456-.321.296-.526.678-.617 1.147h3.601Zm-9.155 4.366c-.675 0-1.279-.148-1.813-.444a3.166 3.166 0 0 1-1.258-1.27c-.305-.551-.457-1.189-.457-1.912 0-.724.148-1.36.444-1.912.305-.55.72-.974 1.246-1.27a3.575 3.575 0 0 1 1.801-.456c.715 0 1.352.18 1.911.542.568.354.975.868 1.221 1.542l-1.381.555c-.14-.42-.366-.732-.678-.937a1.879 1.879 0 0 0-1.086-.321c-.583 0-1.056.214-1.418.641-.354.42-.53.954-.53 1.603 0 .453.086.852.259 1.197.181.337.423.6.727.79.305.18.646.27 1.024.27.436 0 .822-.123 1.159-.37.337-.254.592-.596.765-1.023l1.357.53a3.276 3.276 0 0 1-1.246 1.653c-.584.394-1.266.592-2.047.592Zm-10.923-7.067h1.43v1.098h.025c.246-.428.563-.749.949-.962a2.554 2.554 0 0 1 1.271-.333c.436 0 .834.098 1.196.296.37.189.666.489.888.9.23.411.345.925.345 1.542v4.316h-1.467v-3.675c0-.608-.12-1.094-.358-1.455-.238-.362-.608-.543-1.11-.543-.501 0-.913.185-1.233.555-.321.362-.481.86-.481 1.492v3.626h-1.455V54.92Zm-4.59 7.067c-.674 0-1.279-.148-1.813-.444a3.304 3.304 0 0 1-1.246-1.27c-.304-.551-.456-1.184-.456-1.9 0-.699.144-1.324.432-1.874.296-.56.703-.995 1.221-1.308.518-.312 1.105-.468 1.763-.468.567 0 1.098.127 1.591.382.493.247.892.641 1.196 1.184.313.534.469 1.209.469 2.023v.456h-5.18c.058.592.272 1.056.642 1.393.378.33.838.494 1.381.494.411 0 .777-.115 1.097-.346a2.14 2.14 0 0 0 .728-.925l1.381.543a3.081 3.081 0 0 1-1.221 1.492c-.567.379-1.229.568-1.985.568Zm1.652-4.366c-.049-.543-.238-.946-.567-1.209-.329-.263-.728-.394-1.196-.394-.485 0-.892.152-1.221.456-.321.296-.526.678-.617 1.147h3.601Zm-9.757-2.701h1.431v1.16h.049c.181-.395.448-.72.802-.975a2.066 2.066 0 0 1 1.221-.382c.238 0 .468.04.69.123v1.628a2.358 2.358 0 0 0-.838-.136c-.699 0-1.193.26-1.48.777-.28.51-.42 1.114-.42 1.813v2.85h-1.455v-6.858Zm-4.589 7.067c-.675 0-1.279-.148-1.813-.444a3.296 3.296 0 0 1-1.246-1.27c-.304-.551-.456-1.184-.456-1.9 0-.699.144-1.324.431-1.874.296-.56.703-.995 1.221-1.308.518-.312 1.106-.468 1.764-.468.567 0 1.098.127 1.591.382.493.247.892.641 1.196 1.184.313.534.469 1.209.469 2.023v.456h-5.18c.058.592.271 1.056.641 1.393.379.33.839.494 1.382.494.411 0 .777-.115 1.097-.346.321-.23.563-.538.728-.925l1.381.543a3.08 3.08 0 0 1-1.221 1.492c-.567.379-1.229.568-1.985.568Zm1.652-4.366c-.049-.543-.238-.946-.567-1.209-.329-.263-.728-.394-1.196-.394-.486 0-.893.152-1.221.456a2.034 2.034 0 0 0-.617 1.147h3.601Zm-2.516-3.54 1.382-2.306h1.763l-1.874 2.306h-1.271Zm-6.231 2.159h-1.024v-1.32h1.024v-.752c0-.814.193-1.427.579-1.838.387-.42.925-.629 1.616-.629.436 0 .826.078 1.172.234v1.246a2.007 2.007 0 0 0-.876-.222c-.321 0-.555.066-.703.197a.756.756 0 0 0-.271.457c-.033.18-.05.415-.05.703v.604h1.702v1.32h-1.702v5.537h-1.467V56.24Zm-4.661 0h-1.024v-1.32h1.024v-.752c0-.814.193-1.427.579-1.838.387-.42.925-.629 1.616-.629.436 0 .826.078 1.172.234v1.246a2.007 2.007 0 0 0-.876-.222c-.321 0-.555.066-.703.197a.756.756 0 0 0-.271.457c-.033.18-.05.415-.05.703v.604h1.702v1.32h-1.702v5.537h-1.467V56.24Zm-3.732-1.32h1.455v6.857h-1.455V54.92Zm.74-1.246a.941.941 0 0 1-.691-.283.961.961 0 0 1-.271-.69.89.89 0 0 1 .271-.655.941.941 0 0 1 .691-.283c.263 0 .485.094.666.283a.89.89 0 0 1 .271.654c0 .271-.09.502-.271.69a.886.886 0 0 1-.666.284Zm-6.301 8.313c-.625 0-1.176-.156-1.653-.469a3.143 3.143 0 0 1-1.098-1.295c-.255-.55-.382-1.176-.382-1.874 0-.732.136-1.37.407-1.912.279-.55.658-.974 1.135-1.27a2.932 2.932 0 0 1 1.578-.444c.493 0 .929.11 1.307.333.387.213.691.514.913.9h.025V51.91h1.467v7.72c0 .526.017.938.05 1.233.041.297.098.6.172.913h-1.455c-.099-.42-.144-.76-.136-1.024h-.024c-.247.412-.576.72-.987.925a2.91 2.91 0 0 1-1.319.309Zm.308-1.394c.37 0 .703-.094.999-.283a1.97 1.97 0 0 0 .703-.802c.172-.346.259-.736.259-1.172 0-.427-.087-.81-.259-1.147a1.938 1.938 0 0 0-.716-.801 1.792 1.792 0 0 0-.986-.284c-.37 0-.703.099-.999.296a1.91 1.91 0 0 0-.678.802 2.574 2.574 0 0 0-.247 1.147c0 .427.082.813.247 1.159.164.337.39.604.678.802.296.189.629.283.999.283Zm-11.398 1.394c-.633 0-1.171-.169-1.615-.506-.436-.337-.654-.814-.654-1.43 0-.6.206-1.057.617-1.37.411-.32.97-.554 1.677-.702l.444-.087c.452-.09.781-.164.987-.222a1.15 1.15 0 0 0 .468-.259.56.56 0 0 0 .173-.431.956.956 0 0 0-.358-.753c-.23-.205-.538-.308-.925-.308a1.46 1.46 0 0 0-.925.308c-.263.198-.452.494-.567.888l-1.369-.468c.197-.65.563-1.13 1.098-1.443.534-.321 1.147-.481 1.837-.481.814 0 1.468.205 1.961.616.493.403.74.995.74 1.776v2.516c0 .526.017.938.049 1.233.042.297.099.6.173.913h-1.467a3.713 3.713 0 0 1-.136-1.06h-.025a2.254 2.254 0 0 1-.875.924c-.387.23-.823.346-1.308.346Zm.395-1.135c.337 0 .633-.086.888-.259.263-.172.464-.39.604-.654.148-.263.222-.526.222-.789v-.666c-.312.165-.785.313-1.418.444-.905.206-1.357.563-1.357 1.073 0 .263.095.473.284.63.197.147.456.221.777.221Zm-5.495-8.941h1.455v9.866h-1.455V51.91Zm-5.562 10.076c-.64 0-1.118-.132-1.43-.395-.313-.271-.506-.567-.58-.888a4.885 4.885 0 0 1-.11-1.073v-3.39h-1.357v-1.32h1.356v-1.973h1.468v1.973h1.924v1.32H96.99v2.886c0 .312.016.571.05.776.032.206.114.383.246.53.14.149.353.223.641.223.337 0 .666-.09.987-.272v1.32c-.33.19-.753.284-1.27.284Zm-6-7.067h1.455v6.857h-1.456V54.92Zm.74-1.246a.94.94 0 0 1-.691-.283.962.962 0 0 1-.272-.69c0-.256.091-.474.272-.655a.94.94 0 0 1 .69-.283c.264 0 .486.094.666.283.181.181.272.4.272.654 0 .271-.09.502-.272.69a.886.886 0 0 1-.666.284Zm-6.106 8.313c-.633 0-1.172-.169-1.616-.506-.435-.337-.653-.814-.653-1.43 0-.6.205-1.057.616-1.37.412-.32.97-.554 1.678-.702l.444-.087c.452-.09.78-.164.986-.222.206-.066.362-.152.469-.259a.56.56 0 0 0 .173-.431.957.957 0 0 0-.358-.753c-.23-.205-.538-.308-.925-.308-.353 0-.662.103-.925.308-.263.198-.452.494-.567.888l-1.37-.468c.198-.65.564-1.13 1.098-1.443.535-.321 1.147-.481 1.838-.481.814 0 1.468.205 1.961.616.493.403.74.995.74 1.776v2.516c0 .526.016.938.05 1.233.04.297.098.6.172.913H88.62a3.735 3.735 0 0 1-.135-1.06h-.025c-.197.386-.49.694-.876.924-.386.23-.822.346-1.307.346Zm.395-1.135c.337 0 .633-.086.888-.259.263-.172.464-.39.604-.654.148-.263.222-.526.222-.789v-.666c-.312.165-.785.313-1.418.444-.905.206-1.357.563-1.357 1.073 0 .263.095.473.284.63.197.147.456.221.777.221Zm-6.22-4.612h-1.024v-1.32h1.024v-.752c0-.814.193-1.427.58-1.838.386-.42.924-.629 1.615-.629.436 0 .826.078 1.172.234v1.246a2 2 0 0 0-.876-.222c-.32 0-.555.066-.703.197a.756.756 0 0 0-.271.457c-.033.18-.05.415-.05.703v.604h1.702v1.32h-1.701v5.537h-1.468V56.24Zm-6.767-1.32h1.455v6.857h-1.455V54.92Zm.74-1.246a.94.94 0 0 1-.69-.283.962.962 0 0 1-.272-.69c0-.256.09-.474.271-.655a.94.94 0 0 1 .691-.283c.263 0 .485.094.666.283.18.181.271.4.271.654 0 .271-.09.502-.271.69a.885.885 0 0 1-.666.284Zm-6.116 8.313c-.748 0-1.348-.23-1.8-.69-.444-.461-.666-1.152-.666-2.073V54.92h1.467v3.786c0 .617.128 1.09.383 1.419.254.32.6.48 1.035.48.502 0 .897-.189 1.184-.567.297-.386.445-.847.445-1.381V54.92h1.467v4.711c0 .526.017.938.05 1.233.04.297.098.6.172.913h-1.455c-.099-.411-.148-.732-.148-.962h-.025c-.436.781-1.139 1.172-2.109 1.172Zm-5.685-1.32a2.76 2.76 0 0 1-1.012.987 2.645 2.645 0 0 1-1.32.333c-.591 0-1.122-.16-1.59-.481-.46-.32-.818-.76-1.073-1.32a4.437 4.437 0 0 1-.383-1.862c0-.715.14-1.344.42-1.887.28-.55.653-.974 1.122-1.27a2.934 2.934 0 0 1 1.579-.444c.501 0 .945.115 1.332.345.394.222.703.526.925.913h.024v-1.061h1.43v9.57h-1.454v-3.823Zm-1.924-.074c.37 0 .703-.094.999-.283.296-.198.526-.465.69-.802.173-.346.26-.736.26-1.172 0-.436-.087-.822-.26-1.16a1.99 1.99 0 0 0-.703-.788 1.816 1.816 0 0 0-.999-.284c-.37 0-.703.099-.999.296a1.92 1.92 0 0 0-.678.802 2.586 2.586 0 0 0-.247 1.146c0 .428.083.814.247 1.16a2 2 0 0 0 .69.802c.297.189.63.283 1 .283Zm-8.558 1.394c-.642 0-1.119-.132-1.431-.395-.313-.271-.506-.567-.58-.888a4.885 4.885 0 0 1-.11-1.073v-3.39h-1.357v-1.32h1.356v-1.973h1.468v1.973h1.924v1.32h-1.924v2.886c0 .312.016.571.05.776.032.206.114.383.246.53.14.149.354.223.641.223.337 0 .666-.09.987-.272v1.32c-.329.19-.752.284-1.27.284Zm-6.001-7.067h1.455v6.857h-1.455V54.92Zm.74-1.246a.94.94 0 0 1-.691-.283.962.962 0 0 1-.271-.69c0-.256.09-.474.271-.655a.94.94 0 0 1 .69-.283c.264 0 .486.094.667.283.18.181.271.4.271.654 0 .271-.09.502-.271.69a.886.886 0 0 1-.666.284Zm-6.302 8.313c-.625 0-1.175-.156-1.652-.469a3.145 3.145 0 0 1-1.098-1.295c-.255-.55-.382-1.176-.382-1.874 0-.732.135-1.37.407-1.912.28-.55.657-.974 1.134-1.27a2.935 2.935 0 0 1 1.579-.444c.493 0 .929.11 1.307.333.387.213.69.514.913.9h.025V51.91h1.467v7.72c0 .526.017.938.05 1.233.04.297.098.6.172.913h-1.455c-.099-.42-.144-.76-.136-1.024h-.025c-.246.412-.575.72-.986.925a2.91 2.91 0 0 1-1.32.309Zm.309-1.394c.37 0 .703-.094.998-.283.305-.198.539-.465.703-.802.173-.346.26-.736.26-1.172 0-.427-.087-.81-.26-1.147a1.94 1.94 0 0 0-.715-.801 1.795 1.795 0 0 0-.986-.284c-.37 0-.703.099-1 .296a1.92 1.92 0 0 0-.678.802 2.587 2.587 0 0 0-.246 1.147c0 .427.082.813.246 1.159.165.337.39.604.679.802.296.189.629.283.998.283Zm-7.587 1.394c-.674 0-1.279-.148-1.813-.444a3.302 3.302 0 0 1-1.246-1.27c-.304-.551-.456-1.184-.456-1.9 0-.699.144-1.324.432-1.874.296-.56.703-.995 1.22-1.308.519-.312 1.106-.468 1.764-.468.567 0 1.098.127 1.591.382.494.247.892.641 1.197 1.184.312.534.468 1.209.468 2.023v.456h-5.18c.058.592.272 1.056.642 1.393.378.33.838.494 1.38.494.412 0 .778-.115 1.099-.346.32-.23.563-.538.727-.925l1.381.543a3.086 3.086 0 0 1-1.22 1.492c-.568.379-1.23.568-1.986.568Zm1.653-4.366c-.05-.543-.239-.946-.568-1.209-.329-.263-.727-.394-1.196-.394-.485 0-.892.152-1.221.456-.32.296-.526.678-.617 1.147h3.602Zm-2.516-3.54 1.38-2.306h1.764L33.71 54.08h-1.27Zm-7.242.839h1.43v1.16h.05c.181-.395.448-.72.802-.975a2.07 2.07 0 0 1 1.22-.382c.24 0 .47.04.691.123v1.628a2.362 2.362 0 0 0-.838-.136c-.699 0-1.192.26-1.48.777-.28.51-.42 1.114-.42 1.813v2.85h-1.455v-6.858Zm-4.457 7.067c-.674 0-1.278-.148-1.813-.444a3.17 3.17 0 0 1-1.257-1.27c-.305-.551-.457-1.189-.457-1.912 0-.724.148-1.36.444-1.912.305-.55.72-.974 1.246-1.27a3.575 3.575 0 0 1 1.8-.456c.716 0 1.353.18 1.912.542.567.354.974.868 1.221 1.542l-1.381.555c-.14-.42-.366-.732-.678-.937a1.875 1.875 0 0 0-1.086-.321c-.584 0-1.056.214-1.418.641-.354.42-.53.954-.53 1.603 0 .453.086.852.259 1.197.18.337.423.6.727.79.304.18.646.27 1.024.27.436 0 .822-.123 1.16-.37.336-.254.591-.596.764-1.023l1.356.53a3.275 3.275 0 0 1-1.245 1.653c-.584.394-1.266.592-2.047.592Zm-10.683 0c-.674 0-1.278-.148-1.813-.444A3.303 3.303 0 0 1 7 60.272c-.305-.551-.457-1.184-.457-1.9 0-.699.144-1.324.432-1.874.296-.56.703-.995 1.221-1.308.518-.312 1.106-.468 1.764-.468a3.41 3.41 0 0 1 1.59.382c.494.247.893.641 1.197 1.184.312.534.468 1.209.468 2.023v.456h-5.18c.058.592.272 1.056.642 1.393.378.33.839.494 1.381.494.411 0 .777-.115 1.098-.346.32-.23.563-.538.728-.925l1.38.543a3.086 3.086 0 0 1-1.22 1.492c-.567.379-1.23.568-1.986.568Zm1.653-4.366c-.05-.543-.239-.946-.567-1.209-.33-.263-.728-.394-1.197-.394-.485 0-.892.152-1.22.456a2.034 2.034 0 0 0-.617 1.147h3.6ZM.078 52.156h1.554v8.177h4.44v1.443H.078v-9.62Z" fill="#68012E"/></svg>